<svg width="26" height="26" viewBox="0 0 26 26" fill="none" xmlns="http://www.w3.org/2000/svg">
<path d="M13.1637 6.08005C12.8164 5.97332 12.4451 5.97332 12.0978 6.08005L8.98647 7.03632C7.38758 7.52774 5.86912 8.25024 4.47923 9.18091C3.59572 9.7725 4.01451 11.1506 5.07779 11.1506H20.1837C21.247 11.1506 21.6658 9.7725 20.7823 9.18091C19.3924 8.25024 17.8739 7.52774 16.275 7.03632L13.1637 6.08005Z" fill="#2B2B2B"/>
<path d="M4.55474 25.2185C4.55474 24.7868 4.90465 24.4369 5.33629 24.4369H19.9252C20.3568 24.4369 20.7067 24.7868 20.7067 25.2185C20.7067 25.6501 20.3568 26 19.9252 26H5.33629C4.90465 26 4.55474 25.6501 4.55474 25.2185Z" fill="#2B2B2B"/>
<path d="M6.63886 21.0502C6.63886 21.4818 6.98877 21.8318 7.42041 21.8318C7.85205 21.8318 8.20196 21.4818 8.20196 21.0502L8.20196 14.7978C8.20196 14.3662 7.85205 14.0163 7.42041 14.0163C6.98877 14.0163 6.63886 14.3662 6.63886 14.7978L6.63886 21.0502Z" fill="#2B2B2B"/>
<path d="M12.6307 21.8318C12.1991 21.8318 11.8492 21.4818 11.8492 21.0502L11.8492 14.7978C11.8492 14.3662 12.1991 14.0163 12.6307 14.0163C13.0624 14.0163 13.4123 14.3662 13.4123 14.7978V21.0502C13.4123 21.4818 13.0624 21.8318 12.6307 21.8318Z" fill="#2B2B2B"/>
<path d="M17.0595 21.0502C17.0595 21.4818 17.4094 21.8318 17.841 21.8318C18.2727 21.8318 18.6226 21.4818 18.6226 21.0502V14.7978C18.6226 14.3662 18.2727 14.0163 17.841 14.0163C17.4094 14.0163 17.0595 14.3662 17.0595 14.7978V21.0502Z" fill="#2B2B2B"/>
</svg>
