<svg width="26" height="26" viewBox="0 0 26 26" fill="none" xmlns="http://www.w3.org/2000/svg">
<path fill-rule="evenodd" clip-rule="evenodd" d="M12.5627 11.2544C10.1621 9.83911 7.22618 9.60796 4.62685 10.6296C4.24826 10.7784 4 11.1387 4 11.5393V21.3585C4 22.0162 4.67608 22.466 5.2976 22.2217C7.42618 21.3851 9.83041 21.5744 11.7963 22.7333L12.7694 23.307C12.8436 23.3508 12.9229 23.3699 13 23.3685C13.0771 23.3699 13.1564 23.3508 13.2306 23.307L14.2037 22.7333C16.1696 21.5744 18.5738 21.3851 20.7024 22.2217C21.3239 22.466 22 22.0162 22 21.3585V11.5393C22 11.1387 21.7517 10.7784 21.3731 10.6296C18.7738 9.60796 15.8379 9.83911 13.4373 11.2544L13 11.5122L12.5627 11.2544ZM13.6429 13.2665C13.6429 12.9177 13.355 12.6349 13 12.6349C12.645 12.6349 12.3571 12.9177 12.3571 13.2665V21.2675C12.3571 21.6163 12.645 21.8991 13 21.8991C13.355 21.8991 13.6429 21.6163 13.6429 21.2675V13.2665Z" fill="#2B2B2B"/>
<path d="M5.04986 23.8297C6.7846 22.8354 8.92969 22.8354 10.6644 23.8297L11.5964 24.3638C12.4637 24.861 13.5363 24.861 14.4036 24.3638L15.3356 23.8297C17.0703 22.8354 19.2154 22.8354 20.9501 23.8297L21.0382 23.8802C21.3449 24.0559 21.4485 24.4427 21.2696 24.744C21.0907 25.0454 20.697 25.1471 20.3904 24.9714L20.3023 24.9209C18.9679 24.1561 17.3178 24.1561 15.9834 24.9209L15.0515 25.4551C13.7838 26.1816 12.2162 26.1816 10.9485 25.4551L10.0166 24.9209C8.68218 24.1561 7.03211 24.1561 5.6977 24.9209L5.60963 24.9714C5.30296 25.1471 4.90932 25.0454 4.73043 24.744C4.55153 24.4427 4.65512 24.0559 4.9618 23.8802L5.04986 23.8297Z" fill="#2B2B2B"/>
</svg>
