<svg width="16" height="16" viewBox="0 0 16 16" fill="none" xmlns="http://www.w3.org/2000/svg">
<path fill-rule="evenodd" clip-rule="evenodd" d="M0.916565 7.55551C0.916565 3.38272 4.08788 0 7.9999 0C11.9119 0 15.0832 3.38272 15.0832 7.55551C15.0832 11.7283 11.9119 15.111 7.9999 15.111C4.08788 15.111 0.916565 11.7283 0.916565 7.55551ZM8.6249 3.11109C8.6249 2.74291 8.34508 2.44443 7.9999 2.44443C7.65472 2.44443 7.3749 2.74291 7.3749 3.11109V7.55551C7.3749 7.78537 7.48591 7.99902 7.66865 8.12084L10.1687 9.7875C10.4614 9.98264 10.847 9.88772 11.0299 9.5755C11.2128 9.26328 11.1239 8.85198 10.8312 8.65684L8.6249 7.18602V3.11109Z" fill="#2B2B2B"/>
</svg>
