<svg width="52" height="56" viewBox="0 0 52 56" fill="none" xmlns="http://www.w3.org/2000/svg">
<path d="M34.2868 20.9877C34.9062 20.3043 34.9062 19.1962 34.2868 18.5128C33.6674 17.8294 32.6631 17.8294 32.0437 18.5128L25.6885 25.5249L19.3332 18.5128C18.7138 17.8294 17.7096 17.8294 17.0902 18.5128C16.4708 19.1962 16.4708 20.3043 17.0902 20.9877L23.4454 27.9998L17.0902 35.012C16.4708 35.6954 16.4708 36.8034 17.0902 37.4868C17.7096 38.1703 18.7138 38.1703 19.3332 37.4868L25.6885 30.4747L32.0437 37.4868C32.6631 38.1703 33.6674 38.1703 34.2868 37.4868C34.9062 36.8034 34.9062 35.6954 34.2868 35.012L27.9315 27.9998L34.2868 20.9877Z" fill="#A53131"/>
</svg>
