<svg width="16" height="15" viewBox="0 0 16 15" fill="none" xmlns="http://www.w3.org/2000/svg">
<path d="M5.89484 13.3599C6.01352 13.4658 6.19342 13.3504 6.14887 13.1976L4.13329 6.28707C4.09576 6.15839 3.98199 6.06682 3.84831 6.057C3.52211 6.03304 3.19607 6.00625 2.87023 5.97663L0.173888 5.73151C0.0480067 5.72007 -0.0406006 5.85208 0.0189962 5.96355C1.47745 8.69141 3.57761 11.2906 5.89484 13.3599Z" fill="#2B2B2B"/>
<path d="M7.87227 14.8207C7.88853 14.8765 7.93648 14.9184 7.99456 14.9184C8.05264 14.9184 8.10059 14.8764 8.11685 14.8207L10.584 6.36203C10.6147 6.25661 10.5326 6.15225 10.4228 6.15696C8.80473 6.22645 7.18438 6.22645 5.56627 6.15696C5.45656 6.15225 5.37441 6.25661 5.40516 6.36203L7.87227 14.8207Z" fill="#2B2B2B"/>
<path d="M9.84025 13.1976C9.7957 13.3504 9.9756 13.4658 10.0943 13.3599C12.4115 11.2906 14.5117 8.69141 15.9701 5.96355C16.0297 5.85208 15.9411 5.72006 15.8152 5.73151L13.1189 5.97663C12.793 6.00625 12.467 6.03304 12.1408 6.057C12.0071 6.06682 11.8934 6.15839 11.8558 6.28707L9.84025 13.1976Z" fill="#2B2B2B"/>
<path d="M15.8353 4.52473C15.9573 4.51365 16.0221 4.37533 15.9526 4.27455L13.3623 0.51872C13.1383 0.193934 12.769 0 12.3745 0H10.3828C10.2691 0 10.1916 0.115264 10.2347 0.220516L12.04 4.63921C12.0925 4.76765 12.2218 4.84774 12.3601 4.8368C12.5769 4.81967 12.7936 4.80125 13.0102 4.78156L15.8353 4.52473Z" fill="#2B2B2B"/>
<path d="M8.9266 0.196923C8.87692 0.0776761 8.7604 0 8.63122 0H7.3579C7.22871 0 7.1122 0.0776762 7.06251 0.196923L5.17647 4.72342C5.13393 4.82551 5.20533 4.93893 5.3158 4.94427C7.10059 5.03068 8.88852 5.03068 10.6733 4.94427C10.7838 4.93893 10.8552 4.82551 10.8126 4.72342L8.9266 0.196923Z" fill="#2B2B2B"/>
<path d="M5.75446 0.220516C5.79747 0.115264 5.72005 0 5.60635 0H3.61463C3.2201 0 2.85077 0.193934 2.62678 0.518721L0.0365479 4.27455C-0.032955 4.37533 0.0318571 4.51365 0.153776 4.52473L2.97887 4.78156C3.1955 4.80125 3.41221 4.81967 3.629 4.8368C3.76732 4.84774 3.89659 4.76765 3.94907 4.63922L5.75446 0.220516Z" fill="#2B2B2B"/>
</svg>
