<svg width="26" height="28" viewBox="0 0 26 28" fill="none" xmlns="http://www.w3.org/2000/svg">
<path d="M9.9826 25.0915C10.1433 25.235 10.3869 25.0786 10.3266 24.8718L7.59717 15.5137C7.54634 15.3395 7.39228 15.2155 7.21125 15.2022C6.76953 15.1697 6.32802 15.1335 5.88676 15.0934L2.23547 14.7614C2.06501 14.7459 1.94502 14.9247 2.02572 15.0756C4.00071 18.7696 6.84469 22.2894 9.9826 25.0915Z" fill="#2B2B2B"/>
<path d="M12.6604 27.0697C12.6824 27.1452 12.7473 27.202 12.826 27.202C12.9046 27.202 12.9695 27.1452 12.9916 27.0697L16.3324 15.6152C16.3741 15.4725 16.2628 15.3312 16.1143 15.3376C13.9231 15.4316 11.7289 15.4316 9.53766 15.3376C9.3891 15.3312 9.27784 15.4725 9.31948 15.6152L12.6604 27.0697Z" fill="#2B2B2B"/>
<path d="M15.3253 24.8718C15.265 25.0786 15.5086 25.235 15.6693 25.0915C18.8072 22.2894 21.6512 18.7696 23.6262 15.0756C23.7069 14.9247 23.5869 14.7459 23.4164 14.7614L19.7651 15.0934C19.3239 15.1335 18.8824 15.1697 18.4407 15.2022C18.2596 15.2155 18.1056 15.3395 18.0548 15.5137L15.3253 24.8718Z" fill="#2B2B2B"/>
<path d="M23.4437 13.1272C23.6088 13.1122 23.6965 12.9249 23.6024 12.7885L20.0948 7.70243C19.7915 7.26262 19.2914 7 18.7571 7H16.06C15.906 7 15.8012 7.15609 15.8594 7.29862L18.3042 13.2823C18.3753 13.4562 18.5504 13.5646 18.7377 13.5498C19.0312 13.5266 19.3247 13.5017 19.618 13.475L23.4437 13.1272Z" fill="#2B2B2B"/>
<path d="M14.0881 7.26667C14.0208 7.10519 13.863 7 13.6881 7H11.9638C11.7889 7 11.6311 7.10519 11.5638 7.26667L9.0098 13.3963C8.9522 13.5345 9.04888 13.6881 9.19847 13.6954C11.6154 13.8124 14.0365 13.8124 16.4535 13.6954C16.603 13.6881 16.6997 13.5345 16.6421 13.3963L14.0881 7.26667Z" fill="#2B2B2B"/>
<path d="M9.7925 7.29862C9.85074 7.15609 9.7459 7 9.59193 7H6.89481C6.36055 7 5.86041 7.26262 5.55709 7.70243L2.04949 12.7885C1.95537 12.9249 2.04314 13.1122 2.20824 13.1272L6.03389 13.475C6.32724 13.5017 6.6207 13.5266 6.91427 13.5498C7.10157 13.5646 7.27663 13.4562 7.3477 13.2823L9.7925 7.29862Z" fill="#2B2B2B"/>
</svg>
