<svg width="26" height="26" viewBox="0 0 26 26" fill="none" xmlns="http://www.w3.org/2000/svg">
<path d="M7.82468 10.2214C11.2205 9.9262 14.6356 9.9262 18.0315 10.2214L19.6676 10.3636C20.7567 10.4583 21.6895 11.1079 22.1729 12.0372C22.2347 12.1561 22.1883 12.3 22.0744 12.3705L15.2863 16.5727C13.8304 17.474 11.9947 17.4929 10.5206 16.6218L3.68711 12.5838C3.57671 12.5186 3.52603 12.3843 3.57579 12.2661C4.01796 11.2158 5.01206 10.4659 6.18859 10.3636L7.82468 10.2214Z" fill="#2B2B2B"/>
<path d="M3.57023 14.4023C3.40127 14.3024 3.18568 14.4099 3.16599 14.6051C2.89111 17.3304 2.95764 20.0815 3.36557 22.7943C3.58063 24.2244 4.74782 25.3208 6.18859 25.446L7.82468 25.5882C11.2205 25.8834 14.6356 25.8834 18.0315 25.5882L19.6676 25.446C21.1083 25.3208 22.2755 24.2244 22.4906 22.7943C22.9104 20.0024 22.9686 17.17 22.6653 14.3669C22.644 14.1703 22.4247 14.0648 22.2566 14.169L16.1416 17.9544C14.1719 19.1737 11.6883 19.1993 9.69391 18.0208L3.57023 14.4023Z" fill="#2B2B2B"/>
</svg>
