<svg version="1.2" baseProfile="tiny-ps" xmlns="http://www.w3.org/2000/svg" viewBox="0 0 16 16" width="16" height="16">
	<title>Facebook-svg</title>
	<style>
		tspan { white-space:pre }
		.shp0 { fill: #2b2b2b } 
	</style>
	<path id="Layer" class="shp0" d="M11.64 0.7C11.74 0.7 11.82 0.78 11.82 0.88L11.82 3.6C11.82 3.7 11.74 3.78 11.64 3.78L9.56 3.78C9.4 3.78 9.24 3.85 9.12 3.96C9.01 4.08 8.94 4.24 8.94 4.4L8.94 6.46L11.62 6.46C11.73 6.46 11.82 6.57 11.79 6.68L11.11 9.4C11.09 9.48 11.02 9.54 10.94 9.54L8.94 9.54L8.94 15.12C8.94 15.22 8.86 15.3 8.76 15.3L6.04 15.3C5.94 15.3 5.86 15.22 5.86 15.12L5.86 9.54L3.88 9.54C3.78 9.54 3.7 9.46 3.7 9.36L3.7 6.64C3.7 6.54 3.78 6.46 3.88 6.46L5.86 6.46L5.86 4.4C5.86 3.42 6.25 2.48 6.94 1.78C7.64 1.09 8.58 0.7 9.56 0.7L11.64 0.7Z" />
</svg>