<svg width="26" height="26" viewBox="0 0 26 26" fill="none" xmlns="http://www.w3.org/2000/svg">
<path d="M13.0834 5.0655C12.6972 4.92564 12.3169 5.02348 12.0722 5.22931C11.8345 5.42926 11.7156 5.73442 11.799 6.04209C11.9305 6.52773 12 7.03299 12 7.55198C12 8.73688 11.6385 9.56678 11.0164 10.2547C10.384 10.9541 9.46865 11.5235 8.31288 12.1659C8.29471 12.176 8.27779 12.1875 8.26237 12.2004L8.12239 12.3169C5.6426 13.6402 4 15.9444 4 18.5657C4 22.6716 8.02944 26 13 26C17.9706 26 22 22.6716 22 18.5657C22 17.3602 21.6524 16.221 21.0351 15.2134C20.9849 15.1314 20.8885 15.0756 20.7781 15.0644C20.6678 15.0533 20.5579 15.0883 20.4853 15.1579C20.3913 15.2479 20.2992 15.3368 20.2085 15.4244C19.0374 16.5546 18.0924 17.4667 16.1549 17.8741C16.0725 17.8914 16.0213 17.8785 15.985 17.8598C15.9422 17.8377 15.8955 17.7937 15.8634 17.7233C15.7966 17.5767 15.8253 17.3897 15.9621 17.2672C16.9984 16.3392 17.7345 15.0794 17.9976 13.2874C18.4903 9.93048 16.6433 6.35476 13.0834 5.0655Z" fill="#2B2B2B"/>
</svg>
