<svg width="26" height="26" viewBox="0 0 26 26" fill="none" xmlns="http://www.w3.org/2000/svg">
<path d="M20.8273 5.34613C21.1329 5.03818 21.1329 4.53891 20.8273 4.23096C20.5217 3.92301 20.0263 3.92301 19.7208 4.23096L18.9831 4.97441C18.4662 5.4953 18.4926 6.30473 18.9436 6.81184C21.9716 10.217 21.8618 15.4553 18.6142 18.7282C16.9345 20.421 14.7332 21.2678 12.5316 21.2687L12.5282 21.2687L12.5251 21.2687C10.4722 21.268 8.41962 20.5318 6.79009 19.0601C6.2869 18.6056 5.48373 18.579 4.96687 19.0999L4.22917 19.8433C3.92361 20.1513 3.92361 20.6506 4.22917 20.9585C4.53474 21.2665 5.03015 21.2665 5.33571 20.9585L5.90997 20.3798C7.59983 21.8418 9.65274 22.6538 11.7458 22.8156V24.4229H9.9201C9.48796 24.4229 9.13765 24.776 9.13765 25.2115C9.13765 25.647 9.48796 26 9.9201 26H15.1364C15.5685 26 15.9188 25.647 15.9188 25.2115C15.9188 24.776 15.5685 24.4229 15.1364 24.4229H13.3107V22.8156C15.6473 22.6351 17.9337 21.6443 19.7208 19.8433C23.5069 16.0276 23.6843 9.95284 20.253 5.92487L20.8273 5.34613Z" fill="#2B2B2B"/>
<path fill-rule="evenodd" clip-rule="evenodd" d="M5.74706 12.5947C5.74706 8.8204 8.7831 5.76069 12.5282 5.76069C16.2734 5.76069 19.3094 8.8204 19.3094 12.5947C19.3094 16.3691 16.2734 19.4288 12.5282 19.4288C8.7831 19.4288 5.74706 16.3691 5.74706 12.5947ZM14.6148 8.65202C13.0303 8.65202 11.7458 9.94651 11.7458 11.5433C11.7458 13.1402 13.0303 14.4347 14.6148 14.4347C16.1992 14.4347 17.4837 13.1402 17.4837 11.5433C17.4837 9.94651 16.1992 8.65202 14.6148 8.65202ZM7.57276 15.2232C7.57276 14.4974 8.15662 13.909 8.87684 13.909C9.59706 13.909 10.1809 14.4974 10.1809 15.2232C10.1809 15.9491 9.59706 16.5375 8.87684 16.5375C8.15662 16.5375 7.57276 15.9491 7.57276 15.2232Z" fill="#2B2B2B"/>
</svg>
