<svg width="16" height="14" viewBox="0 0 16 14" fill="none" xmlns="http://www.w3.org/2000/svg">
<path d="M4.79995 0.222168C2.32807 0.222168 0.222168 2.07044 0.222168 4.47087C0.222168 6.12683 0.997587 7.521 2.02527 8.67588C3.04942 9.82679 4.37074 10.7928 5.56526 11.6014L7.62625 12.9965C7.85196 13.1493 8.14794 13.1493 8.37364 12.9965L10.4346 11.6014C11.6292 10.7928 12.9505 9.82679 13.9746 8.67588C15.0023 7.521 15.7777 6.12683 15.7777 4.47087C15.7777 2.07044 13.6718 0.222168 11.1999 0.222168C9.92575 0.222168 8.80453 0.819625 7.99995 1.59269C7.19536 0.819625 6.07414 0.222168 4.79995 0.222168Z" fill="#2B2B2B"/>
</svg>
