<svg width="16" height="16" viewBox="0 0 16 16" fill="none" xmlns="http://www.w3.org/2000/svg">
<path d="M9.71047 1.44676C8.77484 0.601244 7.22508 0.601243 6.28945 1.44676L1.71947 5.57653C1.45701 5.81371 1.28064 6.11355 1.21259 6.43828C0.65758 9.08659 0.616612 11.7978 1.09141 14.458L1.2595 15.3999C1.3126 15.6973 1.60542 15.9167 1.94952 15.9167H5.14282C5.40581 15.9167 5.61901 15.7301 5.61901 15.5V9.66666H10.3809V15.5C10.3809 15.7301 10.5941 15.9167 10.8571 15.9167H14.0504C14.3945 15.9167 14.6873 15.6973 14.7404 15.3999L14.9085 14.458C15.3833 11.7978 15.3423 9.08659 14.7873 6.43828C14.7192 6.11355 14.5429 5.81371 14.2804 5.57653L9.71047 1.44676Z" fill="#2B2B2B"/>
</svg>
