<svg width="10" height="12" viewBox="0 0 10 12" fill="none" xmlns="http://www.w3.org/2000/svg">
<path d="M9.75261 0.75C9.75261 0.335786 9.51861 0 9.22995 0C8.9413 0 8.70729 0.335786 8.70729 0.75V10.75C8.70729 11.1642 8.9413 11.5 9.22995 11.5C9.51861 11.5 9.75261 11.1642 9.75261 10.75V0.75Z" fill="white"/>
<path d="M6.75874 4.69523C7.23959 5.22913 7.23959 6.27085 6.75874 6.80475C5.26873 8.45914 3.60493 9.76314 1.82962 10.6679L1.50484 10.8335C0.898805 11.1423 0.258171 10.5539 0.176058 9.65549C-0.0586861 7.08699 -0.058686 4.41298 0.176058 1.84448C0.258171 0.946038 0.898804 0.357653 1.50484 0.666517L1.82961 0.832041C3.60493 1.73683 5.26873 3.04083 6.75874 4.69523Z" fill="white"/>
</svg>
