<svg width="10" height="12" viewBox="0 0 10 12" fill="none" xmlns="http://www.w3.org/2000/svg">
<path d="M0.000106812 0.75C0.000106812 0.335786 0.234108 0 0.522762 0C0.811418 0 1.04542 0.335786 1.04542 0.75V10.75C1.04542 11.1642 0.811418 11.5 0.522762 11.5C0.234108 11.5 0.000106812 11.1642 0.000106812 10.75V0.75Z" fill="white"/>
<path d="M2.99397 4.69523C2.51312 5.22913 2.51312 6.27085 2.99397 6.80475C4.48397 8.45914 6.14776 9.76314 7.92308 10.6679L8.24786 10.8335C8.85388 11.1423 9.49452 10.5539 9.57663 9.65549C9.81137 7.08699 9.81137 4.41298 9.57663 1.84448C9.49452 0.946038 8.85388 0.357653 8.24786 0.666517L7.92308 0.832041C6.14777 1.73683 4.48397 3.04083 2.99397 4.69523Z" fill="white"/>
</svg>
