<svg width="26" height="28" viewBox="0 0 26 28" fill="none" xmlns="http://www.w3.org/2000/svg">
<path fill-rule="evenodd" clip-rule="evenodd" d="M10.3159 8.2981C11.4989 6.5673 14.0521 6.5673 15.235 8.29811L15.7029 8.98271C18.6345 13.2719 21.1532 17.829 23.2253 22.5932L23.323 22.8179C24.0533 24.4968 22.95 26.4031 21.1305 26.6065C15.5778 27.2271 9.97314 27.2271 4.42037 26.6065C2.60087 26.4031 1.49764 24.4968 2.22786 22.8179L2.3256 22.5932C4.39772 17.829 6.91643 13.2719 9.84798 8.98271L10.3159 8.2981ZM13.8588 13.7228C13.8588 14.3211 13.3738 14.8061 12.7755 14.8061C12.1772 14.8061 11.6921 14.3211 11.6921 13.7228C11.6921 13.1244 12.1772 12.6394 12.7755 12.6394C13.3738 12.6394 13.8588 13.1244 13.8588 13.7228ZM12.7755 16.7019C13.2242 16.7019 13.588 17.0657 13.588 17.5144V22.9311C13.588 23.3798 13.2242 23.7436 12.7755 23.7436C12.3267 23.7436 11.963 23.3798 11.963 22.9311V17.5144C11.963 17.0657 12.3267 16.7019 12.7755 16.7019Z" fill="#2B2B2B"/>
</svg>
