<svg width="16" height="16" viewBox="0 0 16 16" fill="none" xmlns="http://www.w3.org/2000/svg">
<path d="M8.00015 5.40002C6.56421 5.40002 5.40015 6.56408 5.40015 8.00002C5.40015 9.43596 6.56421 10.6 8.00015 10.6C9.43609 10.6 10.6001 9.43596 10.6001 8.00002C10.6001 6.56408 9.43609 5.40002 8.00015 5.40002Z" fill="#2B2B2B"/>
<path fill-rule="evenodd" clip-rule="evenodd" d="M3.81578 0.865199C6.57427 0.556897 9.42604 0.556897 12.1845 0.865199C13.7033 1.03494 14.9282 2.23156 15.1065 3.7556C15.4363 6.57561 15.4363 9.42444 15.1065 12.2444C14.9282 13.7685 13.7033 14.9651 12.1845 15.1348C9.42604 15.4431 6.57427 15.4431 3.81578 15.1348C2.29706 14.9651 1.0721 13.7685 0.893853 12.2444C0.564028 9.42444 0.564028 6.57561 0.893853 3.7556C1.0721 2.23156 2.29706 1.03494 3.81578 0.865199ZM12.0001 3.20002C11.5583 3.20002 11.2001 3.5582 11.2001 4.00002C11.2001 4.44185 11.5583 4.80002 12.0001 4.80002C12.442 4.80002 12.8001 4.44185 12.8001 4.00002C12.8001 3.5582 12.442 3.20002 12.0001 3.20002ZM4.20015 8.00002C4.20015 5.90134 5.90146 4.20002 8.00015 4.20002C10.0988 4.20002 11.8001 5.90134 11.8001 8.00002C11.8001 10.0987 10.0988 11.8 8.00015 11.8C5.90146 11.8 4.20015 10.0987 4.20015 8.00002Z" fill="#2B2B2B"/>
</svg>
