<svg width="26" height="27" viewBox="0 0 26 27" fill="none" xmlns="http://www.w3.org/2000/svg">
<path fill-rule="evenodd" clip-rule="evenodd" d="M4.03205 13.6821C4.40666 9.34098 8.20446 6 12.7646 6H13.2354C17.7955 6 21.5933 9.34098 21.9679 13.6821C22.1696 16.0195 21.4138 18.3403 19.8597 20.1559L14.6346 26.2598C13.7898 27.2467 12.2102 27.2467 11.3654 26.2598L6.14035 20.1559C4.58619 18.3403 3.83036 16.0195 4.03205 13.6821ZM11.0922 14.4048C11.0922 13.3365 11.9679 12.5082 13 12.5082C14.032 12.5082 14.9077 13.3365 14.9077 14.4048C14.9077 15.2413 14.366 15.938 13.6339 16.1944C12.9928 16.419 12.1824 17.0133 12.1824 17.975C12.1824 18.4064 12.5484 18.756 13 18.756C13.4515 18.756 13.8176 18.4064 13.8176 17.975C13.8176 17.9588 13.822 17.9183 13.8843 17.852C13.9509 17.7812 14.0613 17.7084 14.197 17.6609C15.5746 17.1783 16.5429 15.8949 16.5429 14.4048C16.5429 12.5156 14.9782 10.9462 13 10.9462C11.0217 10.9462 9.45705 12.5156 9.45705 14.4048C9.45705 14.8362 9.8231 15.1858 10.2746 15.1858C10.7262 15.1858 11.0922 14.8362 11.0922 14.4048ZM13 22.1403C13.602 22.1403 14.0901 21.6741 14.0901 21.099C14.0901 20.5239 13.602 20.0577 13 20.0577C12.3979 20.0577 11.9098 20.5239 11.9098 21.099C11.9098 21.6741 12.3979 22.1403 13 22.1403Z" fill="#2B2B2B"/>
</svg>
