<svg width="26" height="26" viewBox="0 0 26 26" fill="none" xmlns="http://www.w3.org/2000/svg">
<path d="M4.90247 15.1067C6.97857 19.6284 10.6727 23.2234 15.2656 25.1724L16.0018 25.5004C17.6862 26.2508 19.6663 25.6807 20.6936 24.1494L21.6557 22.7154C21.9685 22.2491 21.8733 21.6212 21.4363 21.2686L18.1735 18.6364C17.6942 18.2497 16.9895 18.3398 16.6229 18.8345L15.6135 20.1965C13.0235 18.9189 10.9207 16.8161 9.64303 14.2261L11.0051 13.2167C11.4998 12.8501 11.5898 12.1454 11.2032 11.6661L8.57084 8.40317C8.21838 7.96629 7.59058 7.87099 7.12435 8.1836L5.68044 9.15178C4.13957 10.185 3.57257 12.1814 4.34037 13.8702L4.90163 15.1048L4.90247 15.1067Z" fill="#2B2B2B"/>
</svg>
