<svg width="15" height="16" viewBox="0 0 15 16" fill="none" xmlns="http://www.w3.org/2000/svg">
<path fill-rule="evenodd" clip-rule="evenodd" d="M2.5999 2.80001C2.5999 1.36407 3.76396 0.200012 5.1999 0.200012C6.00408 0.200012 6.72298 0.565106 7.1999 1.13858C7.67683 0.565106 8.39573 0.200012 9.1999 0.200012C10.6358 0.200012 11.7999 1.36407 11.7999 2.80001C11.7999 3.40342 11.5943 3.95883 11.2494 4.40001H11.9999C13.1045 4.40001 13.9999 5.29544 13.9999 6.40001V7.40001C13.9999 7.73138 13.7313 8.00001 13.3999 8.00001H8.0399C7.90735 8.00001 7.7999 7.89256 7.7999 7.76001V4.99129C7.57354 4.84637 7.37113 4.66733 7.1999 4.46144C7.02868 4.66733 6.82626 4.84637 6.5999 4.99129V7.76001C6.5999 7.89256 6.49245 8.00001 6.3599 8.00001H0.999902C0.668531 8.00001 0.399902 7.73138 0.399902 7.40001V6.40001C0.399902 5.29544 1.29533 4.40001 2.3999 4.40001H3.15037C2.80546 3.95883 2.5999 3.40342 2.5999 2.80001ZM6.5999 2.80001C6.5999 2.02681 5.9731 1.40001 5.1999 1.40001C4.4267 1.40001 3.7999 2.02681 3.7999 2.80001C3.7999 3.57321 4.4267 4.20001 5.1999 4.20001C5.9731 4.20001 6.5999 3.57321 6.5999 2.80001ZM7.7999 2.80001C7.7999 3.57321 8.4267 4.20001 9.1999 4.20001C9.9731 4.20001 10.5999 3.57321 10.5999 2.80001C10.5999 2.02681 9.9731 1.40001 9.1999 1.40001C8.4267 1.40001 7.7999 2.02681 7.7999 2.80001Z" fill="#2B2B2B"/>
<path d="M6.5999 9.32002C6.5999 9.18747 6.49245 9.08002 6.3599 9.08002H2.11911C1.79459 9.08002 1.51728 9.31385 1.46247 9.63371C1.28483 10.6704 1.28483 11.7297 1.46247 12.7663L1.64192 13.8135C1.76275 14.5187 2.33543 15.0588 3.0464 15.1383L3.8985 15.2335C4.71522 15.3248 5.53479 15.3821 6.35508 15.4054C6.48947 15.4093 6.5999 15.3009 6.5999 15.1665V9.32002Z" fill="#2B2B2B"/>
<path d="M8.04472 15.4054C7.91033 15.4093 7.7999 15.3009 7.7999 15.1665L7.7999 9.32002C7.7999 9.18747 7.90735 9.08002 8.0399 9.08002H12.2807C12.6052 9.08002 12.8825 9.31385 12.9373 9.63371C13.115 10.6704 13.115 11.7297 12.9373 12.7663L12.7579 13.8135C12.6371 14.5187 12.0644 15.0588 11.3534 15.1383L10.5013 15.2335C9.68458 15.3248 8.86501 15.3821 8.04472 15.4054Z" fill="#2B2B2B"/>
</svg>
