<svg width="26" height="26" viewBox="0 0 26 26" fill="none" xmlns="http://www.w3.org/2000/svg">
<path d="M7.64936 10.0021C8.0131 10.0281 8.31154 10.2941 8.37187 10.6461L10.2707 21.7248L12.6321 13.6577C12.7293 13.3256 13.0397 13.0967 13.3928 13.0968C13.7459 13.0969 14.0561 13.326 14.1531 13.6583L15.7543 19.1435L16.673 17.6087C16.815 17.3715 17.0748 17.2258 17.3556 17.2258H19.314C19.65 16.1788 20.6493 15.4194 21.83 15.4194C23.2862 15.4194 24.4667 16.5748 24.4667 18C24.4667 19.4253 23.2862 20.5806 21.83 20.5806C20.6493 20.5806 19.65 19.8212 19.314 18.7742H17.8089L16.1844 21.4881C16.0243 21.7555 15.7167 21.9037 15.4026 21.8648C15.0885 21.8259 14.8283 21.6074 14.7413 21.3095L13.3915 16.6855L10.8291 25.439C10.7273 25.7868 10.3931 26.0192 10.0241 25.9988C9.65508 25.9784 9.3497 25.7106 9.28855 25.3539L7.34852 14.0347L5.96356 18.2376C5.85818 18.5574 5.55406 18.7742 5.21074 18.7742H1.79101C1.35415 18.7742 1 18.4276 1 18C1 17.5724 1.35415 17.2258 1.79101 17.2258H4.63471L6.83893 10.5366C6.95088 10.1969 7.28563 9.97608 7.64936 10.0021Z" fill="#2B2B2B"/>
</svg>
