<svg width="26" height="26" viewBox="0 0 26 26" fill="none" xmlns="http://www.w3.org/2000/svg">
<path d="M13.3958 8C11.1522 8 9.33333 9.81884 9.33333 12.0625C9.33333 14.3062 11.1522 16.125 13.3958 16.125C15.6395 16.125 17.4583 14.3062 17.4583 12.0625C17.4583 9.81884 15.6395 8 13.3958 8Z" fill="#2B2B2B"/>
<path d="M9.0625 18.2917C6.81884 18.2917 5 20.1105 5 22.3542V23.6415C5 24.4575 5.59137 25.1532 6.39671 25.2847C11.0321 26.0415 15.7596 26.0415 20.395 25.2847C21.2003 25.1532 21.7917 24.4575 21.7917 23.6415V22.3542C21.7917 20.1105 19.9728 18.2917 17.7292 18.2917H17.3599C17.16 18.2917 16.9614 18.3233 16.7714 18.3853L15.8338 18.6915C14.2496 19.2088 12.542 19.2088 10.9579 18.6915L10.0202 18.3853C9.83025 18.3233 9.63164 18.2917 9.43177 18.2917H9.0625Z" fill="#2B2B2B"/>
</svg>
